HIERARCHY
ROOT reference
{
  OFFSET 0 0 0
  CHANNELS 6 Xposition Yposition Zposition Zrotation Xrotation Yrotation
  JOINT Hips
  {
    OFFSET 346.547 88.4868 223.89
    CHANNELS 3 Zrotation Xrotation Yrotation
    JOINT RightUpLeg
    {
      OFFSET -9.27468 -1.51611 -0.00175448
      CHANNELS 3 Zrotation Xrotation Yrotation
      JOINT RightLeg
      {
        OFFSET -0.00464511 -41.8738 0.0184652
        CHANNELS 3 Zrotation Xrotation Yrotation
        JOINT RightFoot
        {
          OFFSET -0.626239 -42.3044 -0.171503
          CHANNELS 3 Zrotation Xrotation Yrotation
          End Site
          {
            OFFSET 0 -7.69 17.5
          }
        }
      }
    }
    JOINT LeftUpLeg
    {
      OFFSET 9.30083 -1.68454 -0.0454748
      CHANNELS 3 Zrotation Xrotation Yrotation
      JOINT LeftLeg
      {
        OFFSET 0.0692631 -41.8513 -0.097029
        CHANNELS 3 Zrotation Xrotation Yrotation
        JOINT LeftFoot
        {
          OFFSET 0.520945 -41.523 0.446349
          CHANNELS 3 Zrotation Xrotation Yrotation
          End Site
          {
            OFFSET 0 -7.69 17.5
          }
        }
      }
    }
    JOINT Spine
    {
      OFFSET 0.0770133 14.2992 0.0590021
      CHANNELS 3 Zrotation Xrotation Yrotation
      JOINT Spine1
      {
        OFFSET 0.0471461 9.71665 0.020973
        CHANNELS 3 Zrotation Xrotation Yrotation
        JOINT Spine2
        {
          OFFSET 0.051283 10.117 0.000913966
          CHANNELS 3 Zrotation Xrotation Yrotation
          JOINT Spine3
          {
            OFFSET 0.0447963 9.71088 0.00221408
            CHANNELS 3 Zrotation Xrotation Yrotation
            JOINT Neck
            {
              OFFSET 0.115655 10.3749 0.0448519
              CHANNELS 3 Zrotation Xrotation Yrotation
              JOINT Head
              {
                OFFSET 0.0937003 9.47807 0.0215077
                CHANNELS 3 Zrotation Xrotation Yrotation
                End Site
                {
                  OFFSET 0 15.95 0
                }
              }
            }
            JOINT RightShoulder
            {
              OFFSET -3.17023 6.91072 -0.0050072
              CHANNELS 3 Zrotation Xrotation Yrotation
              JOINT RightArm
              {
                OFFSET -12.7573 0.00694711 0.0313031
                CHANNELS 3 Zrotation Xrotation Yrotation
                JOINT RightForeArm
                {
                  OFFSET -26.5152 -0.0619338 -0.0331286
                  CHANNELS 3 Zrotation Xrotation Yrotation
                  JOINT RightHand
                  {
                    OFFSET -25.9971 0.0398378 -0.0269922
                    CHANNELS 3 Zrotation Xrotation Yrotation
                    JOINT RightHandThumb1
                    {
                      OFFSET -2.48905 0.190105 3.12053
                      CHANNELS 3 Zrotation Xrotation Yrotation
                      JOINT RightHandThumb2
                      {
                        OFFSET -3.68274 0 0
                        CHANNELS 3 Zrotation Xrotation Yrotation
                        JOINT RightHandThumb3
                        {
                          OFFSET -2.55832 0 0
                          CHANNELS 3 Zrotation Xrotation Yrotation
                          End Site
                          {
                            OFFSET -2.194 0 0
                          }
                        }
                      }
                    }
                    JOINT RightInHandIndex
                    {
                      OFFSET -3.22368 0.508421 1.97842
                      CHANNELS 3 Zrotation Xrotation Yrotation
                      JOINT RightHandIndex1
                      {
                        OFFSET -5.21684 -0.091368 0.999158
                        CHANNELS 3 Zrotation Xrotation Yrotation
                        JOINT RightHandIndex2
                        {
                          OFFSET -3.61937 0 0
                          CHANNELS 3 Zrotation Xrotation Yrotation
                          JOINT RightHandIndex3
                          {
                            OFFSET -2.0521 0 0
                            CHANNELS 3 Zrotation Xrotation Yrotation
                            End Site
                            {
                              OFFSET -1.805 0 0
                            }
                          }
                        }
                      }
                    }
                    JOINT RightInHandMiddle
                    {
                      OFFSET -3.38211 0.517263 0.756737
                      CHANNELS 3 Zrotation Xrotation Yrotation
                      JOINT RightHandMiddle1
                      {
                        OFFSET -5.17411 -0.084 0.313895
                        CHANNELS 3 Zrotation Xrotation Yrotation
                        JOINT RightHandMiddle2
                        {
                          OFFSET -3.94947 0 0
                          CHANNELS 3 Zrotation Xrotation Yrotation
                          JOINT RightHandMiddle3
                          {
                            OFFSET -2.47579 0 0
                            CHANNELS 3 Zrotation Xrotation Yrotation
                            End Site
                            {
                              OFFSET -1.975 0 0
                            }
                          }
                        }
                      }
                    }
                    JOINT RightInHandRing
                    {
                      OFFSET -3.36516 0.537895 -0.128947
                      CHANNELS 3 Zrotation Xrotation Yrotation
                      JOINT RightHandRing1
                      {
                        OFFSET -4.63474 -0.022105 -0.478947
                        CHANNELS 3 Zrotation Xrotation Yrotation
                        JOINT RightHandRing2
                        {
                          OFFSET -3.44238 0 0
                          CHANNELS 3 Zrotation Xrotation Yrotation
                          JOINT RightHandRing3
                          {
                            OFFSET -2.3881 0 0
                            CHANNELS 3 Zrotation Xrotation Yrotation
                            End Site
                            {
                              OFFSET -1.857 0 0
                            }
                          }
                        }
                      }
                    }
                    JOINT RightInHandPinky
                    {
                      OFFSET -3.16105 0.469368 -1.20179
                      CHANNELS 3 Zrotation Xrotation Yrotation
                      JOINT RightHandPinky1
                      {
                        OFFSET -4.14105 -0.022105 -1.09053
                        CHANNELS 3 Zrotation Xrotation Yrotation
                        JOINT RightHandPinky2
                        {
                          OFFSET -2.75653 0 0
                          CHANNELS 3 Zrotation Xrotation Yrotation
                          JOINT RightHandPinky3
                          {
                            OFFSET -1.74189 0 0
                            CHANNELS 3 Zrotation Xrotation Yrotation
                            End Site
                            {
                              OFFSET -1.645 0 0
                            }
                          }
                        }
                      }
                    }
                  }
                }
              }
            }
            JOINT LeftShoulder
            {
              OFFSET 3.25178 6.92057 -0.0384945
              CHANNELS 3 Zrotation Xrotation Yrotation
              JOINT LeftArm
              {
                OFFSET 12.8462 -0.0383255 -0.0637898
                CHANNELS 3 Zrotation Xrotation Yrotation
                JOINT LeftForeArm
                {
                  OFFSET 26.4888 -0.0608964 -0.0673835
                  CHANNELS 3 Zrotation Xrotation Yrotation
                  JOINT LeftHand
                  {
                    OFFSET 25.9932 -0.0402352 -0.0274148
                    CHANNELS 3 Zrotation Xrotation Yrotation
                    JOINT LeftHandThumb1
                    {
                      OFFSET 2.48905 0.190105 3.12053
                      CHANNELS 3 Zrotation Xrotation Yrotation
                      JOINT LeftHandThumb2
                      {
                        OFFSET 3.68274 0 0
                        CHANNELS 3 Zrotation Xrotation Yrotation
                        JOINT LeftHandThumb3
                        {
                          OFFSET 2.55832 0 0
                          CHANNELS 3 Zrotation Xrotation Yrotation
                          End Site
                          {
                            OFFSET 2.194 0 0
                          }
                        }
                      }
                    }
                    JOINT LeftInHandIndex
                    {
                      OFFSET 3.22368 0.508421 1.97842
                      CHANNELS 3 Zrotation Xrotation Yrotation
                      JOINT LeftHandIndex1
                      {
                        OFFSET 5.21684 -0.091368 0.999158
                        CHANNELS 3 Zrotation Xrotation Yrotation
                        JOINT LeftHandIndex2
                        {
                          OFFSET 3.61937 0 0
                          CHANNELS 3 Zrotation Xrotation Yrotation
                          JOINT LeftHandIndex3
                          {
                            OFFSET 2.0521 0 0
                            CHANNELS 3 Zrotation Xrotation Yrotation
                            End Site
                            {
                              OFFSET 1.805 0 0
                            }
                          }
                        }
                      }
                    }
                    JOINT LeftInHandMiddle
                    {
                      OFFSET 3.38211 0.517263 0.756737
                      CHANNELS 3 Zrotation Xrotation Yrotation
                      JOINT LeftHandMiddle1
                      {
                        OFFSET 5.17411 -0.084 0.313895
                        CHANNELS 3 Zrotation Xrotation Yrotation
                        JOINT LeftHandMiddle2
                        {
                          OFFSET 3.94947 0 0
                          CHANNELS 3 Zrotation Xrotation Yrotation
                          JOINT LeftHandMiddle3
                          {
                            OFFSET 2.47579 0 0
                            CHANNELS 3 Zrotation Xrotation Yrotation
                            End Site
                            {
                              OFFSET 1.975 0 0
                            }
                          }
                        }
                      }
                    }
                    JOINT LeftInHandRing
                    {
                      OFFSET 3.36516 0.537895 -0.128947
                      CHANNELS 3 Zrotation Xrotation Yrotation
                      JOINT LeftHandRing1
                      {
                        OFFSET 4.63474 -0.022105 -0.478947
                        CHANNELS 3 Zrotation Xrotation Yrotation
                        JOINT LeftHandRing2
                        {
                          OFFSET 3.44238 0 0
                          CHANNELS 3 Zrotation Xrotation Yrotation
                          JOINT LeftHandRing3
                          {
                            OFFSET 2.3881 0 0
                            CHANNELS 3 Zrotation Xrotation Yrotation
                            End Site
                            {
                              OFFSET 1.857 0 0
                            }
                          }
                        }
                      }
                    }
                    JOINT LeftInHandPinky
                    {
                      OFFSET 3.16105 0.469368 -1.20179
                      CHANNELS 3 Zrotation Xrotation Yrotation
                      JOINT LeftHandPinky1
                      {
                        OFFSET 4.14105 -0.022105 -1.09053
                        CHANNELS 3 Zrotation Xrotation Yrotation
                        JOINT LeftHandPinky2
                        {
                          OFFSET 2.75653 0 0
                          CHANNELS 3 Zrotation Xrotation Yrotation
                          JOINT LeftHandPinky3
                          {
                            OFFSET 1.74189 0 0
                            CHANNELS 3 Zrotation Xrotation Yrotation
                            End Site
                            {
                              OFFSET 1.645 0 0
                            }
                          }
                        }
                      }
                    }
                  }
                }
              }
            }
          }
        }
      }
    }
  }
}
MOTION
Frames: 2
Frame Time: 0.00833333
3.000000000000000000e+02 0.000000000000000000e+00 0.000000000000000000e+00 0.000000000000000000e+00 0.000000000000000000e+00 0.000000000000000000e+00 -7.927781075275162903e-03 5.654513871619532006e-02 1.239296428351463614e-01 -8.848485979974236859e-02 1.250191864983308740e-02 -1.952559972768307395e-01 -9.152708750584817241e-03 5.961511127953785655e-03 9.104525672358785432e-03 3.284091638575062778e-04 -9.745106594130395830e-03 2.503055217301716892e-04 -5.582869127322314523e-02 -3.476208549624099781e-02 -1.460108172685248007e-01 1.275142254973936698e-02 -2.174059519796017748e-02 -1.419689692799506152e-02 -4.205530407884051913e-03 1.544197465798253198e-02 -8.028141107015849447e-04 5.080377102568583297e-02 2.161238426407870172e-03 -6.687604673567984492e-02 1.155943782097016218e-02 -1.685804587059843828e-03 -1.476557220396430836e-02 1.797685866333331370e-02 -2.275419105481219124e-03 -2.121857806657659676e-02 9.997856194128903334e-04 5.820286688633041034e-04 -6.559288215470821665e-04 3.227607282478707051e-04 -7.905115956025372684e-04 4.015239765585250017e-03 1.743640277614337541e-02 -2.751998204560458273e-04 -1.544617528351522641e-02 -3.377706277586182970e-02 -4.985796126448010374e-02 7.566464395984245916e-02 -3.383870129387017700e-01 2.845825225089767541e-01 1.338228237138582855e-01 4.906873733272910099e-01 -2.256187730530319902e-01 6.771969591902123886e-01 -2.611287795289334301e-01 -2.336496364177655938e-01 4.954768680784420176e-02 0.000000000000000000e+00 0.000000000000000000e+00 0.000000000000000000e+00 5.914128936395515367e-15 -4.996676476644722543e-15 0.000000000000000000e+00 1.544150910794609305e-14 4.416603205151535876e-16 0.000000000000000000e+00 5.171674167947872939e-16 3.683456175818679060e-15 7.045089221290124032e-16 0.000000000000000000e+00 0.000000000000000000e+00 0.000000000000000000e+00 0.000000000000000000e+00 3.750921072161073034e-15 1.211608418546021227e-14 0.000000000000000000e+00 -2.643463935430181478e-15 2.866616944662110151e-15 5.171674167947872939e-16 3.683456175818679060e-15 7.045089221290124032e-16 0.000000000000000000e+00 7.226030847181806489e-15 1.638067287138821915e-15 0.000000000000000000e+00 6.991639019089299852e-15 1.351614217097785538e-14 0.000000000000000000e+00 -5.036656307823103579e-16 7.265040855084601446e-15 5.171674167947872939e-16 3.683456175818679060e-15 7.045089221290124032e-16 0.000000000000000000e+00 0.000000000000000000e+00 0.000000000000000000e+00 0.000000000000000000e+00 3.160140569816673466e-15 5.150680855249863954e-15 0.000000000000000000e+00 1.866125131189881800e-15 2.822834321709166715e-15 5.171674167947872939e-16 3.683456175818679060e-15 7.045089221290124032e-16 0.000000000000000000e+00 0.000000000000000000e+00 0.000000000000000000e+00 0.000000000000000000e+00 1.048244478700075589e-15 8.119290654460450816e-15 0.000000000000000000e+00 2.399804663523010219e-15 6.672505728941678023e-16 2.870550474320284970e-02 6.111466470429193724e-04 -3.541911846084133675e-02 -8.690863205301865846e-02 -3.086572694195836505e-02 7.007224759069369258e-02 2.823772260497949341e-02 -1.869752144600253518e-02 -1.410033408203540187e-02 -2.436137593465737272e-01 -7.964025908145340171e-01 -3.115671381875950718e-01 0.000000000000000000e+00 0.000000000000000000e+00 0.000000000000000000e+00 5.793113952782902536e-15 -1.688582238622863586e-16 0.000000000000000000e+00 1.651593795460822159e-15 -2.267956230115616801e-15 0.000000000000000000e+00 4.973670162313989348e-16 -8.480970142999025725e-16 5.368872617720769560e-16 0.000000000000000000e+00 0.000000000000000000e+00 0.000000000000000000e+00 0.000000000000000000e+00 -2.466618433589501832e-15 -8.922389350918751522e-16 0.000000000000000000e+00 2.830031805121534305e-15 2.243352694690318024e-15 4.973670162313989348e-16 -8.480970142999025725e-16 5.368872617720769560e-16 0.000000000000000000e+00 -2.724887067025366971e-15 8.350426187904603586e-16 0.000000000000000000e+00 2.697188682528320790e-16 3.275681039023883850e-15 0.000000000000000000e+00 -4.072929899762887855e-15 -7.339541621080675392e-15 4.973670162313989348e-16 -8.480970142999025725e-16 5.368872617720769560e-16 0.000000000000000000e+00 0.000000000000000000e+00 0.000000000000000000e+00 0.000000000000000000e+00 -2.689409596378665113e-15 8.948483265752793412e-16 0.000000000000000000e+00 2.999160089849898693e-15 9.522809517208105201e-16 4.973670162313989348e-16 -8.480970142999025725e-16 5.368872617720769560e-16 0.000000000000000000e+00 0.000000000000000000e+00 0.000000000000000000e+00 0.000000000000000000e+00 9.260330896058040537e-16 -5.960914777429561417e-15 0.000000000000000000e+00 -3.684731615088644820e-16 -6.852635008707657468e-15
3.000000000000000000e+02 0.000000000000000000e+00 0.000000000000000000e+00 0.000000000000000000e+00 0.000000000000000000e+00 0.000000000000000000e+00 -1.353867344549328656e-03 7.947924382262099019e-03 1.184287387161155926e-02 2.084919011336242717e-02 1.865184979858705225e-02 1.412323417208228606e-02 -5.466881610162403066e-03 -2.165876917582253841e-02 -1.591167878156631021e-02 -6.755166960630260399e-04 1.578653035224113731e-03 1.300311093800711514e-03 -1.714244083299422232e-03 -6.364210853460423346e-03 -1.866159872486818083e-02 -6.427482542041356231e-03 1.042613971133704576e-02 2.924962437369486683e-03 3.601160574861100080e-03 -8.018646378877607173e-03 1.372117513613927602e-03 8.367634388954922620e-03 -8.913146343124146980e-04 -9.257195484435872673e-03 1.026105633846072012e-03 -6.649404049374953597e-04 -2.103827197127265854e-03 3.188147265131697095e-03 -9.991545388304213984e-04 -2.629107810916059013e-03 -2.783768196741960772e-04 -1.170226662179669211e-04 5.282783574037731481e-05 3.882932730254896447e-04 8.139674348646212766e-04 -3.270070136727241429e-03 -5.527558859483769002e-03 -4.162359396662322370e-04 3.671224331129532056e-03 1.362546035545646878e-02 2.358018591006448908e-02 -4.117378492516449162e-02 1.017997749693477956e-02 4.102650742667873600e-03 2.412894708139274452e-02 -7.907898900608313630e-02 -1.481900097867168420e-01 -1.406800113341791225e-01 -3.179177540214835063e-02 2.616662213878292453e-01 -2.008250474972720079e-01 0.000000000000000000e+00 0.000000000000000000e+00 0.000000000000000000e+00 -1.718997128203561071e-14 2.736723072801170394e-15 0.000000000000000000e+00 -5.094889666352604480e-16 5.251045417570813320e-15 0.000000000000000000e+00 4.028553487038873053e-15 7.998915589025029675e-16 -1.053420848454651179e-15 0.000000000000000000e+00 0.000000000000000000e+00 0.000000000000000000e+00 0.000000000000000000e+00 3.394934478163050320e-15 -1.005118899814234549e-14 0.000000000000000000e+00 -1.007396672556189126e-16 8.041537155595604016e-15 4.028553487038873053e-15 7.998915589025029675e-16 -1.053420848454651179e-15 0.000000000000000000e+00 -7.617491556695446254e-15 -1.003355356558178419e-15 0.000000000000000000e+00 2.756747911070919364e-15 -8.070366435249409497e-15 0.000000000000000000e+00 -8.971926529461927504e-16 9.419307054722114428e-15 4.028553487038873053e-15 7.998915589025029675e-16 -1.053420848454651179e-15 0.000000000000000000e+00 0.000000000000000000e+00 0.000000000000000000e+00 0.000000000000000000e+00 3.162690701484070212e-15 -1.103407855961556982e-14 0.000000000000000000e+00 2.930975547446413038e-16 6.772352668858475674e-15 4.028553487038873053e-15 7.998915589025029675e-16 -1.053420848454651179e-15 0.000000000000000000e+00 0.000000000000000000e+00 0.000000000000000000e+00 0.000000000000000000e+00 3.430023412096464365e-15 -7.084513219689625665e-15 0.000000000000000000e+00 5.559302164544987234e-15 8.014000666355774552e-15 4.849374529905713105e-03 -2.410508512848952636e-02 -4.424335717127268752e-02 1.100824463702958656e-03 -8.635566395110911772e-03 1.789894874511900602e-02 1.109618115794286028e-02 1.682226427702197217e-03 2.249861121198140287e-02 4.670785097126061575e-02 1.653350527536115444e-02 1.764730819737434647e-02 0.000000000000000000e+00 0.000000000000000000e+00 0.000000000000000000e+00 3.058972320973333329e-15 9.209139684840516039e-16 0.000000000000000000e+00 -1.016470881127281413e-15 -2.483109657150091570e-15 0.000000000000000000e+00 -2.346872407187713409e-15 -1.308206012780509609e-15 3.337889111732861220e-15 0.000000000000000000e+00 0.000000000000000000e+00 0.000000000000000000e+00 0.000000000000000000e+00 1.643334218723739660e-15 -7.046902857248554593e-15 0.000000000000000000e+00 2.517353796024703771e-15 -4.103835486889632745e-15 -2.346872407187713409e-15 -1.308206012780509609e-15 3.337889111732861220e-15 0.000000000000000000e+00 3.061960508918267057e-15 -2.333494208744936904e-15 0.000000000000000000e+00 9.211864921912920313e-16 -1.108285506995530481e-15 0.000000000000000000e+00 -2.223216089967383932e-15 -1.901042343641901646e-16 -2.346872407187713409e-15 -1.308206012780509609e-15 3.337889111732861220e-15 0.000000000000000000e+00 0.000000000000000000e+00 0.000000000000000000e+00 0.000000000000000000e+00 9.590628293607384120e-16 -3.514263233201027796e-15 0.000000000000000000e+00 -1.518388701973628907e-18 2.478150591666101190e-16 -2.346872407187713409e-15 -1.308206012780509609e-15 3.337889111732861220e-15 0.000000000000000000e+00 0.000000000000000000e+00 0.000000000000000000e+00 0.000000000000000000e+00 5.304617509762643839e-15 -1.029406813203327083e-14 0.000000000000000000e+00 -1.162187459743823260e-15 -2.282110548582765452e-15
